{
    "asset" : {
        "generator" : "Khronos Blender glTF 2.0 I/O",
        "version" : "2.0"
    },
    "scene" : 0,
    "scenes" : [
        {
            "name" : "Scene",
            "nodes" : [
                0,
                1,
                2,
                3,
                4,
                5,
                6,
                7,
                8,
                9,
                10
            ]
        }
    ],
    "nodes" : [
        {
            "name" : "Light",
            "rotation" : [
                0.16907575726509094,
                0.7558802962303162,
                -0.27217137813568115,
                0.570947527885437
            ],
            "translation" : [
                4.076245307922363,
                5.903861999511719,
                -1.0054539442062378
            ]
        },
        {
            "name" : "Camera",
            "rotation" : [
                0.483536034822464,
                0.33687159419059753,
                -0.20870360732078552,
                0.7804827094078064
            ],
            "translation" : [
                7.358891487121582,
                4.958309173583984,
                6.925790786743164
            ]
        },
        {
            "mesh" : 0,
            "name" : "hainuo_dental_xray_unit_fixer7",
            "rotation" : [
                0.0012428564950823784,
                0.7071056365966797,
                -0.7071057558059692,
                0.0012428563786670566
            ]
        },
        {
            "mesh" : 1,
            "name" : "hainuo_dental_xray_unit_fixer10",
            "rotation" : [
                0.0012428564950823784,
                0.7071056365966797,
                -0.7071057558059692,
                0.0012428563786670566
            ]
        },
        {
            "mesh" : 2,
            "name" : "hainuo_dental_xray_unit_fixer9",
            "rotation" : [
                0.0012428564950823784,
                0.7071056365966797,
                -0.7071057558059692,
                0.0012428563786670566
            ]
        },
        {
            "mesh" : 3,
            "name" : "hainuo_dental_xray_unit_fixer11",
            "rotation" : [
                0.0012428564950823784,
                0.7071056365966797,
                -0.7071057558059692,
                0.0012428563786670566
            ]
        },
        {
            "mesh" : 4,
            "name" : "hainuo_dental_xray_unit_fixer13.1",
            "rotation" : [
                0.0012428564950823784,
                0.7071056365966797,
                -0.7071057558059692,
                0.0012428563786670566
            ]
        },
        {
            "mesh" : 5,
            "name" : "hainuo_dental_xray_unit_fixer14",
            "rotation" : [
                0.0012428564950823784,
                0.7071056365966797,
                -0.7071057558059692,
                0.0012428563786670566
            ]
        },
        {
            "mesh" : 6,
            "name" : "hainuo_dental_xray_unit_regulator",
            "rotation" : [
                0.0012428564950823784,
                0.7071056365966797,
                -0.7071057558059692,
                0.0012428563786670566
            ]
        },
        {
            "mesh" : 7,
            "name" : "hainuo_dental_xray_unit_fixer13",
            "rotation" : [
                0.0012428564950823784,
                0.7071056365966797,
                -0.7071057558059692,
                0.0012428563786670566
            ]
        },
        {
            "mesh" : 8,
            "name" : "hainuo_dental_xray_unit_regulator2",
            "rotation" : [
                0.0012428564950823784,
                0.7071056365966797,
                -0.7071057558059692,
                0.0012428563786670566
            ]
        }
    ],
    "materials" : [
        {
            "alphaMode" : "BLEND",
            "name" : "hainuo_dental_xray_unit_remote",
            "pbrMetallicRoughness" : {
                "baseColorTexture" : {
                    "index" : 0,
                    "texCoord" : 0
                },
                "metallicFactor" : 1,
                "roughnessFactor" : 0.7113248705863953
            }
        },
        {
            "alphaMode" : "BLEND",
            "name" : "hainuo_dental_xray_unit_white_plastic",
            "pbrMetallicRoughness" : {
                "baseColorFactor" : [
                    0.8470589518547058,
                    0.8470589518547058,
                    0.8470589518547058,
                    1
                ],
                "metallicFactor" : 1,
                "roughnessFactor" : 0.7075011730194092
            }
        },
        {
            "alphaMode" : "BLEND",
            "name" : "hainuo_dental_xray_unit_metal",
            "pbrMetallicRoughness" : {
                "baseColorFactor" : [
                    0.0470588244497776,
                    0.0470588244497776,
                    0.0470588244497776,
                    1
                ],
                "metallicFactor" : 1,
                "roughnessFactor" : 0.6963188648223877
            }
        },
        {
            "alphaMode" : "BLEND",
            "name" : "hainuo_dental_xray_unit_regulator",
            "pbrMetallicRoughness" : {
                "baseColorTexture" : {
                    "index" : 1,
                    "texCoord" : 0
                },
                "metallicFactor" : 1,
                "roughnessFactor" : 1
            }
        }
    ],
    "meshes" : [
        {
            "name" : "hainuo_dental_xray_unit_fixer7",
            "primitives" : [
                {
                    "attributes" : {
                        "POSITION" : 0,
                        "NORMAL" : 1,
                        "TEXCOORD_0" : 2
                    },
                    "indices" : 3,
                    "material" : 0
                }
            ]
        },
        {
            "name" : "hainuo_dental_xray_unit_fixer10",
            "primitives" : [
                {
                    "attributes" : {
                        "POSITION" : 4,
                        "NORMAL" : 5,
                        "TEXCOORD_0" : 6
                    },
                    "indices" : 7,
                    "material" : 0
                }
            ]
        },
        {
            "name" : "hainuo_dental_xray_unit_fixer9",
            "primitives" : [
                {
                    "attributes" : {
                        "POSITION" : 8,
                        "NORMAL" : 9,
                        "TEXCOORD_0" : 10
                    },
                    "indices" : 11,
                    "material" : 1
                }
            ]
        },
        {
            "name" : "hainuo_dental_xray_unit_fixer11",
            "primitives" : [
                {
                    "attributes" : {
                        "POSITION" : 12,
                        "NORMAL" : 13,
                        "TEXCOORD_0" : 14
                    },
                    "indices" : 15,
                    "material" : 1
                }
            ]
        },
        {
            "name" : "hainuo_dental_xray_unit_fixer13.1",
            "primitives" : [
                {
                    "attributes" : {
                        "POSITION" : 16,
                        "NORMAL" : 17,
                        "TEXCOORD_0" : 18
                    },
                    "indices" : 19,
                    "material" : 1
                }
            ]
        },
        {
            "name" : "hainuo_dental_xray_unit_fixer14",
            "primitives" : [
                {
                    "attributes" : {
                        "POSITION" : 20,
                        "NORMAL" : 21,
                        "TEXCOORD_0" : 22
                    },
                    "indices" : 23,
                    "material" : 2
                }
            ]
        },
        {
            "name" : "hainuo_dental_xray_unit_regulator",
            "primitives" : [
                {
                    "attributes" : {
                        "POSITION" : 24,
                        "NORMAL" : 25,
                        "TEXCOORD_0" : 26
                    },
                    "indices" : 27,
                    "material" : 3
                }
            ]
        },
        {
            "name" : "hainuo_dental_xray_unit_fixer13",
            "primitives" : [
                {
                    "attributes" : {
                        "POSITION" : 28,
                        "NORMAL" : 29,
                        "TEXCOORD_0" : 30
                    },
                    "indices" : 31,
                    "material" : 3
                }
            ]
        },
        {
            "name" : "hainuo_dental_xray_unit_regulator2",
            "primitives" : [
                {
                    "attributes" : {
                        "POSITION" : 32,
                        "NORMAL" : 33,
                        "TEXCOORD_0" : 34
                    },
                    "indices" : 35,
                    "material" : 3
                }
            ]
        }
    ],
    "textures" : [
        {
            "source" : 0
        },
        {
            "source" : 1
        }
    ],
    "images" : [
        {
            "mimeType" : "image/jpeg",
            "name" : "hainuo_dental_xray_unit_logo.jpg.001",
            "uri" : "hainuo_dental_xray_unit_logo.jpg.jpg"
        },
        {
            "mimeType" : "image/jpeg",
            "name" : "hainuo_dental_xray_unit_regulator.jpg.001",
            "uri" : "hainuo_dental_xray_unit_regulator.jpg.jpg"
        }
    ],
    "accessors" : [
        {
            "bufferView" : 0,
            "componentType" : 5126,
            "count" : 356,
            "max" : [
                6.460503101348877,
                12.55877685546875,
                5.314515590667725
            ],
            "min" : [
                -6.5132951736450195,
                -8.121253967285156,
                -5.1882123947143555
            ],
            "type" : "VEC3"
        },
        {
            "bufferView" : 1,
            "componentType" : 5126,
            "count" : 356,
            "type" : "VEC3"
        },
        {
            "bufferView" : 2,
            "componentType" : 5126,
            "count" : 356,
            "type" : "VEC2"
        },
        {
            "bufferView" : 3,
            "componentType" : 5123,
            "count" : 1296,
            "type" : "SCALAR"
        },
        {
            "bufferView" : 4,
            "componentType" : 5126,
            "count" : 345,
            "max" : [
                6.819087028503418,
                12.917177200317383,
                2.348947048187256
            ],
            "min" : [
                -6.871695518493652,
                -8.479655265808105,
                -2.3805675506591797
            ],
            "type" : "VEC3"
        },
        {
            "bufferView" : 5,
            "componentType" : 5126,
            "count" : 345,
            "type" : "VEC3"
        },
        {
            "bufferView" : 6,
            "componentType" : 5126,
            "count" : 345,
            "type" : "VEC2"
        },
        {
            "bufferView" : 7,
            "componentType" : 5123,
            "count" : 1272,
            "type" : "SCALAR"
        },
        {
            "bufferView" : 8,
            "componentType" : 5126,
            "count" : 678,
            "max" : [
                7.6284003257751465,
                7.658423900604248,
                2.797663450241089
            ],
            "min" : [
                -7.667550563812256,
                -2.797417163848877,
                -6.72305154800415
            ],
            "type" : "VEC3"
        },
        {
            "bufferView" : 9,
            "componentType" : 5126,
            "count" : 678,
            "type" : "VEC3"
        },
        {
            "bufferView" : 10,
            "componentType" : 5126,
            "count" : 678,
            "type" : "VEC2"
        },
        {
            "bufferView" : 11,
            "componentType" : 5123,
            "count" : 2604,
            "type" : "SCALAR"
        },
        {
            "bufferView" : 12,
            "componentType" : 5126,
            "count" : 741,
            "max" : [
                2.5805771350860596,
                -8.358587265014648,
                2.5815317630767822
            ],
            "min" : [
                -2.622101068496704,
                -24.58037757873535,
                -2.6299614906311035
            ],
            "type" : "VEC3"
        },
        {
            "bufferView" : 13,
            "componentType" : 5126,
            "count" : 741,
            "type" : "VEC3"
        },
        {
            "bufferView" : 14,
            "componentType" : 5126,
            "count" : 741,
            "type" : "VEC2"
        },
        {
            "bufferView" : 15,
            "componentType" : 5123,
            "count" : 2754,
            "type" : "SCALAR"
        },
        {
            "bufferView" : 16,
            "componentType" : 5126,
            "count" : 1084,
            "max" : [
                1.411711573600769,
                7.110461711883545,
                -6.434317111968994
            ],
            "min" : [
                -1.4957093000411987,
                4.201897621154785,
                -8.679025650024414
            ],
            "type" : "VEC3"
        },
        {
            "bufferView" : 17,
            "componentType" : 5126,
            "count" : 1084,
            "type" : "VEC3"
        },
        {
            "bufferView" : 18,
            "componentType" : 5126,
            "count" : 1084,
            "type" : "VEC2"
        },
        {
            "bufferView" : 19,
            "componentType" : 5123,
            "count" : 3780,
            "type" : "SCALAR"
        },
        {
            "bufferView" : 20,
            "componentType" : 5126,
            "count" : 759,
            "max" : [
                1.363850474357605,
                7.062485218048096,
                -9.629461288452148
            ],
            "min" : [
                -1.4477137327194214,
                4.249815464019775,
                -10.550203323364258
            ],
            "type" : "VEC3"
        },
        {
            "bufferView" : 21,
            "componentType" : 5126,
            "count" : 759,
            "type" : "VEC3"
        },
        {
            "bufferView" : 22,
            "componentType" : 5126,
            "count" : 759,
            "type" : "VEC2"
        },
        {
            "bufferView" : 23,
            "componentType" : 5123,
            "count" : 2730,
            "type" : "SCALAR"
        },
        {
            "bufferView" : 24,
            "componentType" : 5126,
            "count" : 800,
            "max" : [
                8.396841049194336,
                2.4972083568573,
                2.4938111305236816
            ],
            "min" : [
                6.859354496002197,
                -2.5415711402893066,
                -2.517367362976074
            ],
            "type" : "VEC3"
        },
        {
            "bufferView" : 25,
            "componentType" : 5126,
            "count" : 800,
            "type" : "VEC3"
        },
        {
            "bufferView" : 26,
            "componentType" : 5126,
            "count" : 800,
            "type" : "VEC2"
        },
        {
            "bufferView" : 27,
            "componentType" : 5123,
            "count" : 3060,
            "type" : "SCALAR"
        },
        {
            "bufferView" : 28,
            "componentType" : 5126,
            "count" : 1615,
            "max" : [
                1.3638485670089722,
                7.06248140335083,
                -6.434317111968994
            ],
            "min" : [
                -1.4477156400680542,
                4.249811172485352,
                -9.629462242126465
            ],
            "type" : "VEC3"
        },
        {
            "bufferView" : 29,
            "componentType" : 5126,
            "count" : 1615,
            "type" : "VEC3"
        },
        {
            "bufferView" : 30,
            "componentType" : 5126,
            "count" : 1615,
            "type" : "VEC2"
        },
        {
            "bufferView" : 31,
            "componentType" : 5123,
            "count" : 5880,
            "type" : "SCALAR"
        },
        {
            "bufferView" : 32,
            "componentType" : 5126,
            "count" : 800,
            "max" : [
                -6.893927097320557,
                2.5596396923065186,
                2.5130515098571777
            ],
            "min" : [
                -8.431411743164062,
                -2.479139804840088,
                -2.4981253147125244
            ],
            "type" : "VEC3"
        },
        {
            "bufferView" : 33,
            "componentType" : 5126,
            "count" : 800,
            "type" : "VEC3"
        },
        {
            "bufferView" : 34,
            "componentType" : 5126,
            "count" : 800,
            "type" : "VEC2"
        },
        {
            "bufferView" : 35,
            "componentType" : 5123,
            "count" : 3060,
            "type" : "SCALAR"
        }
    ],
    "bufferViews" : [
        {
            "buffer" : 0,
            "byteLength" : 4272,
            "byteOffset" : 0
        },
        {
            "buffer" : 0,
            "byteLength" : 4272,
            "byteOffset" : 4272
        },
        {
            "buffer" : 0,
            "byteLength" : 2848,
            "byteOffset" : 8544
        },
        {
            "buffer" : 0,
            "byteLength" : 2592,
            "byteOffset" : 11392
        },
        {
            "buffer" : 0,
            "byteLength" : 4140,
            "byteOffset" : 13984
        },
        {
            "buffer" : 0,
            "byteLength" : 4140,
            "byteOffset" : 18124
        },
        {
            "buffer" : 0,
            "byteLength" : 2760,
            "byteOffset" : 22264
        },
        {
            "buffer" : 0,
            "byteLength" : 2544,
            "byteOffset" : 25024
        },
        {
            "buffer" : 0,
            "byteLength" : 8136,
            "byteOffset" : 27568
        },
        {
            "buffer" : 0,
            "byteLength" : 8136,
            "byteOffset" : 35704
        },
        {
            "buffer" : 0,
            "byteLength" : 5424,
            "byteOffset" : 43840
        },
        {
            "buffer" : 0,
            "byteLength" : 5208,
            "byteOffset" : 49264
        },
        {
            "buffer" : 0,
            "byteLength" : 8892,
            "byteOffset" : 54472
        },
        {
            "buffer" : 0,
            "byteLength" : 8892,
            "byteOffset" : 63364
        },
        {
            "buffer" : 0,
            "byteLength" : 5928,
            "byteOffset" : 72256
        },
        {
            "buffer" : 0,
            "byteLength" : 5508,
            "byteOffset" : 78184
        },
        {
            "buffer" : 0,
            "byteLength" : 13008,
            "byteOffset" : 83692
        },
        {
            "buffer" : 0,
            "byteLength" : 13008,
            "byteOffset" : 96700
        },
        {
            "buffer" : 0,
            "byteLength" : 8672,
            "byteOffset" : 109708
        },
        {
            "buffer" : 0,
            "byteLength" : 7560,
            "byteOffset" : 118380
        },
        {
            "buffer" : 0,
            "byteLength" : 9108,
            "byteOffset" : 125940
        },
        {
            "buffer" : 0,
            "byteLength" : 9108,
            "byteOffset" : 135048
        },
        {
            "buffer" : 0,
            "byteLength" : 6072,
            "byteOffset" : 144156
        },
        {
            "buffer" : 0,
            "byteLength" : 5460,
            "byteOffset" : 150228
        },
        {
            "buffer" : 0,
            "byteLength" : 9600,
            "byteOffset" : 155688
        },
        {
            "buffer" : 0,
            "byteLength" : 9600,
            "byteOffset" : 165288
        },
        {
            "buffer" : 0,
            "byteLength" : 6400,
            "byteOffset" : 174888
        },
        {
            "buffer" : 0,
            "byteLength" : 6120,
            "byteOffset" : 181288
        },
        {
            "buffer" : 0,
            "byteLength" : 19380,
            "byteOffset" : 187408
        },
        {
            "buffer" : 0,
            "byteLength" : 19380,
            "byteOffset" : 206788
        },
        {
            "buffer" : 0,
            "byteLength" : 12920,
            "byteOffset" : 226168
        },
        {
            "buffer" : 0,
            "byteLength" : 11760,
            "byteOffset" : 239088
        },
        {
            "buffer" : 0,
            "byteLength" : 9600,
            "byteOffset" : 250848
        },
        {
            "buffer" : 0,
            "byteLength" : 9600,
            "byteOffset" : 260448
        },
        {
            "buffer" : 0,
            "byteLength" : 6400,
            "byteOffset" : 270048
        },
        {
            "buffer" : 0,
            "byteLength" : 6120,
            "byteOffset" : 276448
        }
    ],
    "buffers" : [
        {
            "byteLength" : 282568,
            "uri" : "ModifiedXray.bin"
        }
    ]
}
