{
    "asset" : {
        "generator" : "Khronos Blender glTF 2.0 I/O",
        "version" : "2.0"
    },
    "scene" : 0,
    "scenes" : [
        {
            "name" : "Scene",
            "nodes" : [
                0,
                1,
                2,
                3,
                4,
                5,
                6,
                7,
                8,
                9,
                10
            ]
        }
    ],
    "nodes" : [
        {
            "name" : "Light",
            "rotation" : [
                0.16907575726509094,
                0.7558802962303162,
                -0.27217137813568115,
                0.570947527885437
            ],
            "translation" : [
                4.076245307922363,
                5.903861999511719,
                -1.0054539442062378
            ]
        },
        {
            "name" : "Camera",
            "rotation" : [
                0.483536034822464,
                0.33687159419059753,
                -0.20870360732078552,
                0.7804827094078064
            ],
            "translation" : [
                7.358891487121582,
                4.958309173583984,
                6.925790786743164
            ]
        },
        {
            "mesh" : 0,
            "name" : "hainuo_dental_xray_unit_fixer7",
            "rotation" : [
                0.7071068286895752,
                0,
                0,
                0.7071067094802856
            ]
        },
        {
            "mesh" : 1,
            "name" : "hainuo_dental_xray_unit_fixer10",
            "rotation" : [
                0.7071068286895752,
                0,
                0,
                0.7071067094802856
            ]
        },
        {
            "mesh" : 2,
            "name" : "hainuo_dental_xray_unit_fixer9",
            "rotation" : [
                0.7071068286895752,
                0,
                0,
                0.7071067094802856
            ]
        },
        {
            "mesh" : 3,
            "name" : "hainuo_dental_xray_unit_fixer11",
            "rotation" : [
                0.7071068286895752,
                0,
                0,
                0.7071067094802856
            ]
        },
        {
            "mesh" : 4,
            "name" : "hainuo_dental_xray_unit_fixer13.1",
            "rotation" : [
                0.7071068286895752,
                0,
                0,
                0.7071067094802856
            ]
        },
        {
            "mesh" : 5,
            "name" : "hainuo_dental_xray_unit_fixer14",
            "rotation" : [
                0.7071068286895752,
                0,
                0,
                0.7071067094802856
            ]
        },
        {
            "mesh" : 6,
            "name" : "hainuo_dental_xray_unit_regulator",
            "rotation" : [
                0.7071068286895752,
                0,
                0,
                0.7071067094802856
            ]
        },
        {
            "mesh" : 7,
            "name" : "hainuo_dental_xray_unit_fixer13",
            "rotation" : [
                0.7071068286895752,
                0,
                0,
                0.7071067094802856
            ]
        },
        {
            "mesh" : 8,
            "name" : "hainuo_dental_xray_unit_regulator2",
            "rotation" : [
                0.7071068286895752,
                0,
                0,
                0.7071067094802856
            ]
        }
    ],
    "materials" : [
        {
            "alphaMode" : "BLEND",
            "name" : "hainuo_dental_xray_unit_white_plastic",
            "pbrMetallicRoughness" : {
                "baseColorFactor" : [
                    0.8470589518547058,
                    0.8470589518547058,
                    0.8470589518547058,
                    1
                ],
                "metallicFactor" : 0,
                "roughnessFactor" : 0.7075011730194092
            }
        },
        {
            "alphaMode" : "BLEND",
            "name" : "hainuo_dental_xray_unit_remote",
            "pbrMetallicRoughness" : {
                "baseColorTexture" : {
                    "index" : 0,
                    "texCoord" : 0
                },
                "metallicFactor" : 0,
                "roughnessFactor" : 0.7113248705863953
            }
        },
        {
            "alphaMode" : "BLEND",
            "name" : "hainuo_dental_xray_unit_regulator",
            "pbrMetallicRoughness" : {
                "baseColorTexture" : {
                    "index" : 1,
                    "texCoord" : 0
                },
                "metallicFactor" : 0,
                "roughnessFactor" : 1
            }
        }
    ],
    "meshes" : [
        {
            "name" : "hainuo_dental_xray_unit_fixer7",
            "primitives" : [
                {
                    "attributes" : {
                        "POSITION" : 0,
                        "NORMAL" : 1,
                        "TEXCOORD_0" : 2
                    },
                    "indices" : 3,
                    "material" : 0
                }
            ]
        },
        {
            "name" : "hainuo_dental_xray_unit_fixer10",
            "primitives" : [
                {
                    "attributes" : {
                        "POSITION" : 4,
                        "NORMAL" : 5,
                        "TEXCOORD_0" : 6
                    },
                    "indices" : 7,
                    "material" : 1
                }
            ]
        },
        {
            "name" : "hainuo_dental_xray_unit_fixer9",
            "primitives" : [
                {
                    "attributes" : {
                        "POSITION" : 8,
                        "NORMAL" : 9,
                        "TEXCOORD_0" : 10
                    },
                    "indices" : 11,
                    "material" : 0
                }
            ]
        },
        {
            "name" : "hainuo_dental_xray_unit_fixer11",
            "primitives" : [
                {
                    "attributes" : {
                        "POSITION" : 12,
                        "NORMAL" : 13,
                        "TEXCOORD_0" : 14
                    },
                    "indices" : 15,
                    "material" : 0
                }
            ]
        },
        {
            "name" : "hainuo_dental_xray_unit_fixer13.1",
            "primitives" : [
                {
                    "attributes" : {
                        "POSITION" : 16,
                        "NORMAL" : 17,
                        "TEXCOORD_0" : 18
                    },
                    "indices" : 19,
                    "material" : 0
                }
            ]
        },
        {
            "name" : "hainuo_dental_xray_unit_fixer14",
            "primitives" : [
                {
                    "attributes" : {
                        "POSITION" : 20,
                        "NORMAL" : 21,
                        "TEXCOORD_0" : 22
                    },
                    "indices" : 23,
                    "material" : 0
                }
            ]
        },
        {
            "name" : "hainuo_dental_xray_unit_regulator",
            "primitives" : [
                {
                    "attributes" : {
                        "POSITION" : 24,
                        "NORMAL" : 25,
                        "TEXCOORD_0" : 26
                    },
                    "indices" : 27,
                    "material" : 2
                }
            ]
        },
        {
            "name" : "hainuo_dental_xray_unit_fixer13",
            "primitives" : [
                {
                    "attributes" : {
                        "POSITION" : 28,
                        "NORMAL" : 29,
                        "TEXCOORD_0" : 30
                    },
                    "indices" : 31,
                    "material" : 2
                }
            ]
        },
        {
            "name" : "hainuo_dental_xray_unit_regulator2",
            "primitives" : [
                {
                    "attributes" : {
                        "POSITION" : 32,
                        "NORMAL" : 33,
                        "TEXCOORD_0" : 34
                    },
                    "indices" : 35,
                    "material" : 2
                }
            ]
        }
    ],
    "textures" : [
        {
            "source" : 0
        },
        {
            "source" : 1
        }
    ],
    "images" : [
        {
            "bufferView" : 8,
            "mimeType" : "image/png",
            "name" : "hainuo_dental_xray_unit_logo.jpg"
        },
        {
            "bufferView" : 29,
            "mimeType" : "image/png",
            "name" : "hainuo_dental_xray_unit_regulator.jpg"
        }
    ],
    "accessors" : [
        {
            "bufferView" : 0,
            "componentType" : 5126,
            "count" : 356,
            "max" : [
                6.803040504455566,
                12.899654388427734,
                -3.335258960723877
            ],
            "min" : [
                -6.17075777053833,
                -7.780375957489014,
                -13.837986946105957
            ],
            "type" : "VEC3"
        },
        {
            "bufferView" : 1,
            "componentType" : 5126,
            "count" : 356,
            "type" : "VEC3"
        },
        {
            "bufferView" : 2,
            "componentType" : 5126,
            "count" : 356,
            "type" : "VEC2"
        },
        {
            "bufferView" : 3,
            "componentType" : 5123,
            "count" : 1296,
            "type" : "SCALAR"
        },
        {
            "bufferView" : 4,
            "componentType" : 5126,
            "count" : 345,
            "max" : [
                7.161624431610107,
                13.258055686950684,
                -6.300827503204346
            ],
            "min" : [
                -6.529158115386963,
                -8.138776779174805,
                -11.030342102050781
            ],
            "type" : "VEC3"
        },
        {
            "bufferView" : 5,
            "componentType" : 5126,
            "count" : 345,
            "type" : "VEC3"
        },
        {
            "bufferView" : 6,
            "componentType" : 5126,
            "count" : 345,
            "type" : "VEC2"
        },
        {
            "bufferView" : 7,
            "componentType" : 5123,
            "count" : 1272,
            "type" : "SCALAR"
        },
        {
            "bufferView" : 9,
            "componentType" : 5126,
            "count" : 678,
            "max" : [
                7.970937728881836,
                7.575818061828613,
                -5.852110862731934
            ],
            "min" : [
                -7.325013637542725,
                -2.8800230026245117,
                -15.372825622558594
            ],
            "type" : "VEC3"
        },
        {
            "bufferView" : 10,
            "componentType" : 5126,
            "count" : 678,
            "type" : "VEC3"
        },
        {
            "bufferView" : 11,
            "componentType" : 5126,
            "count" : 678,
            "type" : "VEC2"
        },
        {
            "bufferView" : 12,
            "componentType" : 5123,
            "count" : 2604,
            "type" : "SCALAR"
        },
        {
            "bufferView" : 13,
            "componentType" : 5126,
            "count" : 660,
            "max" : [
                2.923114538192749,
                29.358779907226562,
                -6.06824254989624
            ],
            "min" : [
                -2.2795636653900146,
                13.136987686157227,
                -11.279735565185547
            ],
            "type" : "VEC3"
        },
        {
            "bufferView" : 14,
            "componentType" : 5126,
            "count" : 660,
            "type" : "VEC3"
        },
        {
            "bufferView" : 15,
            "componentType" : 5126,
            "count" : 660,
            "type" : "VEC2"
        },
        {
            "bufferView" : 16,
            "componentType" : 5123,
            "count" : 2511,
            "type" : "SCALAR"
        },
        {
            "bufferView" : 17,
            "componentType" : 5126,
            "count" : 1084,
            "max" : [
                1.7542487382888794,
                0.5765034556388855,
                -15.084091186523438
            ],
            "min" : [
                -1.1531721353530884,
                -2.3320605754852295,
                -17.328800201416016
            ],
            "type" : "VEC3"
        },
        {
            "bufferView" : 18,
            "componentType" : 5126,
            "count" : 1084,
            "type" : "VEC3"
        },
        {
            "bufferView" : 19,
            "componentType" : 5126,
            "count" : 1084,
            "type" : "VEC2"
        },
        {
            "bufferView" : 20,
            "componentType" : 5123,
            "count" : 3780,
            "type" : "SCALAR"
        },
        {
            "bufferView" : 21,
            "componentType" : 5126,
            "count" : 759,
            "max" : [
                1.7063876390457153,
                0.5285857319831848,
                -18.27923583984375
            ],
            "min" : [
                -1.105176568031311,
                -2.2840840816497803,
                -19.19997787475586
            ],
            "type" : "VEC3"
        },
        {
            "bufferView" : 22,
            "componentType" : 5126,
            "count" : 759,
            "type" : "VEC3"
        },
        {
            "bufferView" : 23,
            "componentType" : 5126,
            "count" : 759,
            "type" : "VEC2"
        },
        {
            "bufferView" : 24,
            "componentType" : 5123,
            "count" : 2730,
            "type" : "SCALAR"
        },
        {
            "bufferView" : 25,
            "componentType" : 5126,
            "count" : 800,
            "max" : [
                8.739378929138184,
                7.319972038269043,
                -6.15596342086792
            ],
            "min" : [
                7.201891899108887,
                2.2811925411224365,
                -11.167141914367676
            ],
            "type" : "VEC3"
        },
        {
            "bufferView" : 26,
            "componentType" : 5126,
            "count" : 800,
            "type" : "VEC3"
        },
        {
            "bufferView" : 27,
            "componentType" : 5126,
            "count" : 800,
            "type" : "VEC2"
        },
        {
            "bufferView" : 28,
            "componentType" : 5123,
            "count" : 3060,
            "type" : "SCALAR"
        },
        {
            "bufferView" : 30,
            "componentType" : 5126,
            "count" : 1615,
            "max" : [
                1.7063857316970825,
                0.52858966588974,
                -15.084091186523438
            ],
            "min" : [
                -1.1051784753799438,
                -2.2840802669525146,
                -18.27923583984375
            ],
            "type" : "VEC3"
        },
        {
            "bufferView" : 31,
            "componentType" : 5126,
            "count" : 1615,
            "type" : "VEC3"
        },
        {
            "bufferView" : 32,
            "componentType" : 5126,
            "count" : 1615,
            "type" : "VEC2"
        },
        {
            "bufferView" : 33,
            "componentType" : 5123,
            "count" : 5880,
            "type" : "SCALAR"
        },
        {
            "bufferView" : 34,
            "componentType" : 5126,
            "count" : 800,
            "max" : [
                -6.551389694213867,
                7.257540702819824,
                -6.136723041534424
            ],
            "min" : [
                -8.088874816894531,
                2.218761444091797,
                -11.147899627685547
            ],
            "type" : "VEC3"
        },
        {
            "bufferView" : 35,
            "componentType" : 5126,
            "count" : 800,
            "type" : "VEC3"
        },
        {
            "bufferView" : 36,
            "componentType" : 5126,
            "count" : 800,
            "type" : "VEC2"
        },
        {
            "bufferView" : 37,
            "componentType" : 5123,
            "count" : 3060,
            "type" : "SCALAR"
        }
    ],
    "bufferViews" : [
        {
            "buffer" : 0,
            "byteLength" : 4272,
            "byteOffset" : 0
        },
        {
            "buffer" : 0,
            "byteLength" : 4272,
            "byteOffset" : 4272
        },
        {
            "buffer" : 0,
            "byteLength" : 2848,
            "byteOffset" : 8544
        },
        {
            "buffer" : 0,
            "byteLength" : 2592,
            "byteOffset" : 11392
        },
        {
            "buffer" : 0,
            "byteLength" : 4140,
            "byteOffset" : 13984
        },
        {
            "buffer" : 0,
            "byteLength" : 4140,
            "byteOffset" : 18124
        },
        {
            "buffer" : 0,
            "byteLength" : 2760,
            "byteOffset" : 22264
        },
        {
            "buffer" : 0,
            "byteLength" : 2544,
            "byteOffset" : 25024
        },
        {
            "buffer" : 0,
            "byteLength" : 134777,
            "byteOffset" : 27568
        },
        {
            "buffer" : 0,
            "byteLength" : 8136,
            "byteOffset" : 162348
        },
        {
            "buffer" : 0,
            "byteLength" : 8136,
            "byteOffset" : 170484
        },
        {
            "buffer" : 0,
            "byteLength" : 5424,
            "byteOffset" : 178620
        },
        {
            "buffer" : 0,
            "byteLength" : 5208,
            "byteOffset" : 184044
        },
        {
            "buffer" : 0,
            "byteLength" : 7920,
            "byteOffset" : 189252
        },
        {
            "buffer" : 0,
            "byteLength" : 7920,
            "byteOffset" : 197172
        },
        {
            "buffer" : 0,
            "byteLength" : 5280,
            "byteOffset" : 205092
        },
        {
            "buffer" : 0,
            "byteLength" : 5022,
            "byteOffset" : 210372
        },
        {
            "buffer" : 0,
            "byteLength" : 13008,
            "byteOffset" : 215396
        },
        {
            "buffer" : 0,
            "byteLength" : 13008,
            "byteOffset" : 228404
        },
        {
            "buffer" : 0,
            "byteLength" : 8672,
            "byteOffset" : 241412
        },
        {
            "buffer" : 0,
            "byteLength" : 7560,
            "byteOffset" : 250084
        },
        {
            "buffer" : 0,
            "byteLength" : 9108,
            "byteOffset" : 257644
        },
        {
            "buffer" : 0,
            "byteLength" : 9108,
            "byteOffset" : 266752
        },
        {
            "buffer" : 0,
            "byteLength" : 6072,
            "byteOffset" : 275860
        },
        {
            "buffer" : 0,
            "byteLength" : 5460,
            "byteOffset" : 281932
        },
        {
            "buffer" : 0,
            "byteLength" : 9600,
            "byteOffset" : 287392
        },
        {
            "buffer" : 0,
            "byteLength" : 9600,
            "byteOffset" : 296992
        },
        {
            "buffer" : 0,
            "byteLength" : 6400,
            "byteOffset" : 306592
        },
        {
            "buffer" : 0,
            "byteLength" : 6120,
            "byteOffset" : 312992
        },
        {
            "buffer" : 0,
            "byteLength" : 70680,
            "byteOffset" : 319112
        },
        {
            "buffer" : 0,
            "byteLength" : 19380,
            "byteOffset" : 389792
        },
        {
            "buffer" : 0,
            "byteLength" : 19380,
            "byteOffset" : 409172
        },
        {
            "buffer" : 0,
            "byteLength" : 12920,
            "byteOffset" : 428552
        },
        {
            "buffer" : 0,
            "byteLength" : 11760,
            "byteOffset" : 441472
        },
        {
            "buffer" : 0,
            "byteLength" : 9600,
            "byteOffset" : 453232
        },
        {
            "buffer" : 0,
            "byteLength" : 9600,
            "byteOffset" : 462832
        },
        {
            "buffer" : 0,
            "byteLength" : 6400,
            "byteOffset" : 472432
        },
        {
            "buffer" : 0,
            "byteLength" : 6120,
            "byteOffset" : 478832
        }
    ],
    "buffers" : [
        {
            "byteLength" : 484952,
            "uri" : "data:application/octet-stream;base64,"
        }
    ]
}
